<mxfile host="Electron" modified="2024-03-07T12:32:46.042Z" agent="Mozilla/5.0 (Windows NT 10.0; Win64; x64) AppleWebKit/537.36 (KHTML, like Gecko) draw.io/23.1.5 Chrome/120.0.6099.109 Electron/28.1.0 Safari/537.36" etag="YiDdlU9_WfzvG-ygBwJ9" version="23.1.5" type="device">
  <diagram id="O3whct_VJJggGx5-_gyD" name="Page-1">
    <mxGraphModel dx="3354" dy="844" grid="1" gridSize="10" guides="1" tooltips="1" connect="1" arrows="1" fold="1" page="1" pageScale="1" pageWidth="1920" pageHeight="1200" math="0" shadow="0">
      <root>
        <mxCell id="0" />
        <mxCell id="1" parent="0" />
        <mxCell id="KI7Xn0BbtmQMHCuYdvjg-131" value="" style="rounded=0;whiteSpace=wrap;html=1;fontSize=22;fillColor=#f5f5f5;fontColor=#333333;strokeColor=#666666;direction=east;" parent="1" vertex="1">
          <mxGeometry x="-150" y="80" width="1760" height="1620" as="geometry" />
        </mxCell>
        <mxCell id="KI7Xn0BbtmQMHCuYdvjg-67" value="&lt;span style=&quot;color: rgba(0 , 0 , 0 , 0) ; font-family: monospace ; font-size: 0px&quot;&gt;%3CmxGraphModel%3E%3Croot%3E%3CmxCell%20id%3D%220%22%2F%3E%3CmxCell%20id%3D%221%22%20parent%3D%220%22%2F%3E%3CmxCell%20id%3D%222%22%20value%3D%22%22%20style%3D%22rounded%3D0%3BwhiteSpace%3Dwrap%3Bhtml%3D1%3BstrokeWidth%3D2%3BfillColor%3D%23dae8fc%3BstrokeColor%3D%236c8ebf%3B%22%20vertex%3D%221%22%20parent%3D%221%22%3E%3CmxGeometry%20x%3D%22-120%22%20y%3D%22190%22%20width%3D%221920%22%20height%3D%22240%22%20as%3D%22geometry%22%2F%3E%3C%2FmxCell%3E%3C%2Froot%3E%3C%2FmxGraphModel%3E&lt;/span&gt;" style="rounded=0;whiteSpace=wrap;html=1;strokeWidth=2;" parent="1" vertex="1">
          <mxGeometry x="-110" y="890" width="1690" height="350" as="geometry" />
        </mxCell>
        <mxCell id="sNpTPO4_H6hmEde9CRE1-240" value="&lt;span style=&quot;color: rgba(0 , 0 , 0 , 0) ; font-family: monospace ; font-size: 0px&quot;&gt;%3CmxGraphModel%3E%3Croot%3E%3CmxCell%20id%3D%220%22%2F%3E%3CmxCell%20id%3D%221%22%20parent%3D%220%22%2F%3E%3CmxCell%20id%3D%222%22%20value%3D%22%22%20style%3D%22rounded%3D0%3BwhiteSpace%3Dwrap%3Bhtml%3D1%3BstrokeWidth%3D2%3BfillColor%3D%23dae8fc%3BstrokeColor%3D%236c8ebf%3B%22%20vertex%3D%221%22%20parent%3D%221%22%3E%3CmxGeometry%20x%3D%22-120%22%20y%3D%22190%22%20width%3D%221920%22%20height%3D%22240%22%20as%3D%22geometry%22%2F%3E%3C%2FmxCell%3E%3C%2Froot%3E%3C%2FmxGraphModel%3E&lt;/span&gt;" style="rounded=0;whiteSpace=wrap;html=1;strokeWidth=2;" parent="1" vertex="1">
          <mxGeometry x="-110" y="1240.24" width="1690" height="419.76" as="geometry" />
        </mxCell>
        <mxCell id="IDHT7T46eidWPeozflbB-3" value="&lt;span style=&quot;color: rgba(0 , 0 , 0 , 0) ; font-family: monospace ; font-size: 0px&quot;&gt;%3CmxGraphModel%3E%3Croot%3E%3CmxCell%20id%3D%220%22%2F%3E%3CmxCell%20id%3D%221%22%20parent%3D%220%22%2F%3E%3CmxCell%20id%3D%222%22%20value%3D%22%22%20style%3D%22rounded%3D0%3BwhiteSpace%3Dwrap%3Bhtml%3D1%3BstrokeWidth%3D2%3BfillColor%3D%23dae8fc%3BstrokeColor%3D%236c8ebf%3B%22%20vertex%3D%221%22%20parent%3D%221%22%3E%3CmxGeometry%20x%3D%22-120%22%20y%3D%22190%22%20width%3D%221920%22%20height%3D%22240%22%20as%3D%22geometry%22%2F%3E%3C%2FmxCell%3E%3C%2Froot%3E%3C%2FmxGraphModel%3E&lt;/span&gt;" style="rounded=0;whiteSpace=wrap;html=1;strokeWidth=2;" parent="1" vertex="1">
          <mxGeometry x="-110" y="140" width="1690" height="250" as="geometry" />
        </mxCell>
        <mxCell id="IDHT7T46eidWPeozflbB-2" value="&lt;span style=&quot;color: rgba(0 , 0 , 0 , 0) ; font-family: monospace ; font-size: 0px&quot;&gt;%3CmxGraphModel%3E%3Croot%3E%3CmxCell%20id%3D%220%22%2F%3E%3CmxCell%20id%3D%221%22%20parent%3D%220%22%2F%3E%3CmxCell%20id%3D%222%22%20value%3D%22%22%20style%3D%22rounded%3D0%3BwhiteSpace%3Dwrap%3Bhtml%3D1%3BstrokeWidth%3D2%3BfillColor%3D%23dae8fc%3BstrokeColor%3D%236c8ebf%3B%22%20vertex%3D%221%22%20parent%3D%221%22%3E%3CmxGeometry%20x%3D%22-120%22%20y%3D%22190%22%20width%3D%221920%22%20height%3D%22240%22%20as%3D%22geometry%22%2F%3E%3C%2FmxCell%3E%3C%2Froot%3E%3C%2FmxGraphModel%3E&lt;/span&gt;" style="rounded=0;whiteSpace=wrap;html=1;strokeWidth=2;" parent="1" vertex="1">
          <mxGeometry x="-110" y="390" width="1690" height="250" as="geometry" />
        </mxCell>
        <mxCell id="IDHT7T46eidWPeozflbB-1" value="&lt;span style=&quot;color: rgba(0 , 0 , 0 , 0) ; font-family: monospace ; font-size: 0px&quot;&gt;%3CmxGraphModel%3E%3Croot%3E%3CmxCell%20id%3D%220%22%2F%3E%3CmxCell%20id%3D%221%22%20parent%3D%220%22%2F%3E%3CmxCell%20id%3D%222%22%20value%3D%22%22%20style%3D%22rounded%3D0%3BwhiteSpace%3Dwrap%3Bhtml%3D1%3BstrokeWidth%3D2%3BfillColor%3D%23dae8fc%3BstrokeColor%3D%236c8ebf%3B%22%20vertex%3D%221%22%20parent%3D%221%22%3E%3CmxGeometry%20x%3D%22-120%22%20y%3D%22190%22%20width%3D%221920%22%20height%3D%22240%22%20as%3D%22geometry%22%2F%3E%3C%2FmxCell%3E%3C%2Froot%3E%3C%2FmxGraphModel%3E&lt;/span&gt;" style="rounded=0;whiteSpace=wrap;html=1;strokeWidth=2;" parent="1" vertex="1">
          <mxGeometry x="-110" y="640" width="1690" height="250" as="geometry" />
        </mxCell>
        <mxCell id="KI7Xn0BbtmQMHCuYdvjg-15" style="edgeStyle=orthogonalEdgeStyle;rounded=0;orthogonalLoop=1;jettySize=auto;html=1;exitX=0.5;exitY=1;exitDx=0;exitDy=0;fontStyle=1;strokeWidth=2;strokeColor=#00CC00;" parent="1" source="sNpTPO4_H6hmEde9CRE1-241" target="KI7Xn0BbtmQMHCuYdvjg-2" edge="1">
          <mxGeometry relative="1" as="geometry" />
        </mxCell>
        <mxCell id="KI7Xn0BbtmQMHCuYdvjg-1" value="PROVIDE CONSENT &lt;br&gt;&lt;u&gt;OB.1.4.A&lt;/u&gt;" style="rounded=0;whiteSpace=wrap;html=1;fontStyle=1;strokeWidth=2;" parent="1" vertex="1">
          <mxGeometry x="40" y="310" width="120" height="60" as="geometry" />
        </mxCell>
        <mxCell id="sNpTPO4_H6hmEde9CRE1-249" style="edgeStyle=orthogonalEdgeStyle;rounded=0;orthogonalLoop=1;jettySize=auto;html=1;exitX=0.5;exitY=1;exitDx=0;exitDy=0;strokeColor=#00CC00;fontStyle=1;strokeWidth=2;entryX=0.5;entryY=0;entryDx=0;entryDy=0;" parent="1" source="KI7Xn0BbtmQMHCuYdvjg-2" target="sNpTPO4_H6hmEde9CRE1-254" edge="1">
          <mxGeometry relative="1" as="geometry" />
        </mxCell>
        <mxCell id="KI7Xn0BbtmQMHCuYdvjg-2" value="VERIFY CONSENT GIVEN FOR BIOMETRIC COLLECTION" style="rounded=0;whiteSpace=wrap;html=1;fontStyle=1;strokeWidth=2;" parent="1" vertex="1">
          <mxGeometry x="40" y="710" width="120" height="60" as="geometry" />
        </mxCell>
        <mxCell id="KI7Xn0BbtmQMHCuYdvjg-14" value="APPLICANT" style="text;html=1;align=center;verticalAlign=middle;resizable=0;points=[];autosize=1;strokeColor=none;fillColor=none;fontStyle=1;strokeWidth=2;fontSize=22;horizontal=0;" parent="1" vertex="1">
          <mxGeometry x="-110" y="195" width="50" height="140" as="geometry" />
        </mxCell>
        <mxCell id="KI7Xn0BbtmQMHCuYdvjg-19" value="PARENT/GUARDIAN/&lt;br style=&quot;font-size: 22px;&quot;&gt;INTRODUCER" style="text;html=1;align=center;verticalAlign=middle;resizable=0;points=[];autosize=1;strokeColor=none;fillColor=none;fontStyle=1;strokeWidth=2;fontSize=22;horizontal=0;" parent="1" vertex="1">
          <mxGeometry x="-110" y="400" width="80" height="230" as="geometry" />
        </mxCell>
        <mxCell id="KI7Xn0BbtmQMHCuYdvjg-20" value="ADMINISTRATOR" style="text;html=1;align=center;verticalAlign=middle;resizable=0;points=[];autosize=1;strokeColor=none;fillColor=none;fontStyle=1;strokeWidth=2;fontSize=22;horizontal=0;" parent="1" vertex="1">
          <mxGeometry x="-110" y="665" width="50" height="200" as="geometry" />
        </mxCell>
        <mxCell id="KI7Xn0BbtmQMHCuYdvjg-72" value="B" style="ellipse;whiteSpace=wrap;html=1;aspect=fixed;fontSize=32;strokeWidth=2;fontStyle=1" parent="1" vertex="1">
          <mxGeometry x="-110" y="90" width="42" height="42" as="geometry" />
        </mxCell>
        <mxCell id="8eKBUWW6FmaFlCSRCfbh-2" style="edgeStyle=orthogonalEdgeStyle;rounded=0;orthogonalLoop=1;jettySize=auto;html=1;exitX=0.5;exitY=1;exitDx=0;exitDy=0;exitPerimeter=0;entryX=0.5;entryY=0;entryDx=0;entryDy=0;strokeColor=#00CC00;fontStyle=1;strokeWidth=2;" parent="1" source="8eKBUWW6FmaFlCSRCfbh-1" target="KI7Xn0BbtmQMHCuYdvjg-1" edge="1">
          <mxGeometry relative="1" as="geometry" />
        </mxCell>
        <mxCell id="8eKBUWW6FmaFlCSRCfbh-1" value="&lt;b&gt;START&lt;br&gt;(OFFLINE)&lt;br&gt;&lt;/b&gt;" style="strokeWidth=2;html=1;shape=mxgraph.flowchart.terminator;whiteSpace=wrap;fillColor=#d5e8d4;strokeColor=#82b366;" parent="1" vertex="1">
          <mxGeometry x="50" y="200" width="100" height="40" as="geometry" />
        </mxCell>
        <mxCell id="_-J-_Ixpa1AOM5gLo02t-3" style="edgeStyle=orthogonalEdgeStyle;rounded=0;orthogonalLoop=1;jettySize=auto;html=1;exitX=1;exitY=0.5;exitDx=0;exitDy=0;entryX=0;entryY=0.5;entryDx=0;entryDy=0;strokeColor=#00CC00;fontStyle=1;strokeWidth=2;" parent="1" source="8eKBUWW6FmaFlCSRCfbh-4" target="8eKBUWW6FmaFlCSRCfbh-6" edge="1">
          <mxGeometry relative="1" as="geometry" />
        </mxCell>
        <mxCell id="_-J-_Ixpa1AOM5gLo02t-14" style="edgeStyle=orthogonalEdgeStyle;rounded=0;orthogonalLoop=1;jettySize=auto;html=1;exitX=0.5;exitY=1;exitDx=0;exitDy=0;entryX=0.5;entryY=1;entryDx=0;entryDy=0;strokeColor=#FF0000;fontStyle=1;strokeWidth=2;" parent="1" source="8eKBUWW6FmaFlCSRCfbh-4" target="_-J-_Ixpa1AOM5gLo02t-13" edge="1">
          <mxGeometry relative="1" as="geometry" />
        </mxCell>
        <mxCell id="8eKBUWW6FmaFlCSRCfbh-4" value="IF&lt;br&gt;APPLICANT AGE &amp;gt;5" style="rounded=0;whiteSpace=wrap;html=1;fontStyle=1;strokeWidth=2;shape=rhombus;perimeter=rhombusPerimeter;" parent="1" vertex="1">
          <mxGeometry x="197" y="700" width="90" height="80" as="geometry" />
        </mxCell>
        <mxCell id="_-J-_Ixpa1AOM5gLo02t-8" style="edgeStyle=orthogonalEdgeStyle;rounded=0;orthogonalLoop=1;jettySize=auto;html=1;exitX=0.5;exitY=0;exitDx=0;exitDy=0;strokeColor=#00CC00;fontStyle=1;strokeWidth=2;" parent="1" source="8eKBUWW6FmaFlCSRCfbh-6" target="_-J-_Ixpa1AOM5gLo02t-6" edge="1">
          <mxGeometry relative="1" as="geometry" />
        </mxCell>
        <mxCell id="8eKBUWW6FmaFlCSRCfbh-6" value="REQUEST FACIAL SCAN OF APPLICANT" style="rounded=0;whiteSpace=wrap;html=1;fontStyle=1;strokeWidth=2;" parent="1" vertex="1">
          <mxGeometry x="320" y="710" width="120" height="60" as="geometry" />
        </mxCell>
        <mxCell id="sNpTPO4_H6hmEde9CRE1-251" style="edgeStyle=orthogonalEdgeStyle;rounded=0;orthogonalLoop=1;jettySize=auto;html=1;exitX=0.5;exitY=0;exitDx=0;exitDy=0;entryX=0;entryY=0.5;entryDx=0;entryDy=0;strokeColor=#00CC00;fontStyle=1;strokeWidth=2;" parent="1" source="_-J-_Ixpa1AOM5gLo02t-1" target="8eKBUWW6FmaFlCSRCfbh-4" edge="1">
          <mxGeometry relative="1" as="geometry" />
        </mxCell>
        <mxCell id="_-J-_Ixpa1AOM5gLo02t-1" value="INITIATES FACIAL BIOMETRIC COLLECTION" style="rounded=0;whiteSpace=wrap;html=1;fontStyle=1;strokeWidth=2;" parent="1" vertex="1">
          <mxGeometry x="180" y="1350" width="120" height="60" as="geometry" />
        </mxCell>
        <mxCell id="_-J-_Ixpa1AOM5gLo02t-11" style="edgeStyle=orthogonalEdgeStyle;rounded=0;orthogonalLoop=1;jettySize=auto;html=1;exitX=1;exitY=0.5;exitDx=0;exitDy=0;strokeColor=#00CC00;fontStyle=1;strokeWidth=2;" parent="1" source="_-J-_Ixpa1AOM5gLo02t-6" target="_-J-_Ixpa1AOM5gLo02t-9" edge="1">
          <mxGeometry relative="1" as="geometry" />
        </mxCell>
        <mxCell id="_-J-_Ixpa1AOM5gLo02t-6" value="POSITIONS &lt;br&gt;FACE IN FRONT &lt;br&gt;OF CAMERA" style="rounded=0;whiteSpace=wrap;html=1;fontStyle=1;strokeWidth=2;shape=parallelogram;perimeter=parallelogramPerimeter;fixedSize=1;" parent="1" vertex="1">
          <mxGeometry x="320" y="220" width="120" height="60" as="geometry" />
        </mxCell>
        <mxCell id="_-J-_Ixpa1AOM5gLo02t-17" style="edgeStyle=orthogonalEdgeStyle;rounded=0;orthogonalLoop=1;jettySize=auto;html=1;exitX=1;exitY=0.75;exitDx=0;exitDy=0;entryX=0.5;entryY=0;entryDx=0;entryDy=0;strokeColor=#00CC00;fontStyle=1;strokeWidth=2;" parent="1" source="_-J-_Ixpa1AOM5gLo02t-7" target="_-J-_Ixpa1AOM5gLo02t-16" edge="1">
          <mxGeometry relative="1" as="geometry" />
        </mxCell>
        <mxCell id="_-J-_Ixpa1AOM5gLo02t-7" value="POSITION APPLICANT&lt;br style=&quot;border-color: var(--border-color);&quot;&gt;FACE IN FRONT &lt;br&gt;OF CAMERA&lt;br&gt;-------------&lt;br&gt;WITH P/G/I ASSISTANCE" style="rounded=0;whiteSpace=wrap;html=1;fontStyle=1;strokeWidth=2;shape=parallelogram;perimeter=parallelogramPerimeter;fixedSize=1;" parent="1" vertex="1">
          <mxGeometry x="600" y="290" width="120" height="170" as="geometry" />
        </mxCell>
        <mxCell id="_-J-_Ixpa1AOM5gLo02t-12" style="edgeStyle=orthogonalEdgeStyle;rounded=0;orthogonalLoop=1;jettySize=auto;html=1;exitX=0.5;exitY=1;exitDx=0;exitDy=0;entryX=0.5;entryY=0;entryDx=0;entryDy=0;strokeColor=#00CC00;fontStyle=1;strokeWidth=2;jumpStyle=arc;jumpSize=11;" parent="1" source="_-J-_Ixpa1AOM5gLo02t-9" target="_-J-_Ixpa1AOM5gLo02t-10" edge="1">
          <mxGeometry relative="1" as="geometry" />
        </mxCell>
        <mxCell id="_-J-_Ixpa1AOM5gLo02t-9" value="CAPTURE &lt;br&gt;FACIAL IMAGE&lt;br&gt;OF APPLICANT" style="rounded=0;whiteSpace=wrap;html=1;fontStyle=1;strokeWidth=2;shape=label;fixedSize=1;" parent="1" vertex="1">
          <mxGeometry x="450" y="710" width="120" height="60" as="geometry" />
        </mxCell>
        <mxCell id="sNpTPO4_H6hmEde9CRE1-269" style="edgeStyle=orthogonalEdgeStyle;rounded=0;orthogonalLoop=1;jettySize=auto;html=1;exitX=0.5;exitY=1;exitDx=0;exitDy=0;strokeColor=#FF0000;fontStyle=1;strokeWidth=2;entryX=0.25;entryY=0;entryDx=0;entryDy=0;" parent="1" source="_-J-_Ixpa1AOM5gLo02t-10" target="sNpTPO4_H6hmEde9CRE1-268" edge="1">
          <mxGeometry relative="1" as="geometry">
            <Array as="points">
              <mxPoint x="510" y="1320" />
              <mxPoint x="693" y="1320" />
              <mxPoint x="693" y="1350" />
            </Array>
          </mxGeometry>
        </mxCell>
        <mxCell id="sNpTPO4_H6hmEde9CRE1-276" style="edgeStyle=orthogonalEdgeStyle;rounded=0;orthogonalLoop=1;jettySize=auto;html=1;exitX=1;exitY=0.5;exitDx=0;exitDy=0;strokeColor=#00CC00;fontStyle=1;strokeWidth=2;" parent="1" source="_-J-_Ixpa1AOM5gLo02t-10" target="sNpTPO4_H6hmEde9CRE1-272" edge="1">
          <mxGeometry relative="1" as="geometry" />
        </mxCell>
        <mxCell id="_-J-_Ixpa1AOM5gLo02t-10" value="IF&amp;nbsp;&lt;br&gt;FACIAL SCAN SUCCESS" style="rounded=0;whiteSpace=wrap;html=1;fontStyle=1;strokeWidth=2;shape=rhombus;perimeter=rhombusPerimeter;" parent="1" vertex="1">
          <mxGeometry x="458.75" y="967.5" width="102.5" height="80" as="geometry" />
        </mxCell>
        <mxCell id="_-J-_Ixpa1AOM5gLo02t-15" style="edgeStyle=orthogonalEdgeStyle;rounded=0;orthogonalLoop=1;jettySize=auto;html=1;exitX=0.5;exitY=0;exitDx=0;exitDy=0;entryX=0.5;entryY=1;entryDx=0;entryDy=0;strokeColor=#00CC00;fontStyle=1;strokeWidth=2;" parent="1" source="_-J-_Ixpa1AOM5gLo02t-13" target="_-J-_Ixpa1AOM5gLo02t-7" edge="1">
          <mxGeometry relative="1" as="geometry" />
        </mxCell>
        <mxCell id="_-J-_Ixpa1AOM5gLo02t-13" value="REQUEST FACIAL SCAN OF APPLICANT&lt;br&gt;-------------&lt;br style=&quot;border-color: var(--border-color);&quot;&gt;WITH P/G/I ASSISTANCE" style="rounded=0;whiteSpace=wrap;html=1;fontStyle=1;strokeWidth=2;" parent="1" vertex="1">
          <mxGeometry x="580" y="703.5" width="160" height="80" as="geometry" />
        </mxCell>
        <mxCell id="_-J-_Ixpa1AOM5gLo02t-19" style="edgeStyle=orthogonalEdgeStyle;rounded=0;orthogonalLoop=1;jettySize=auto;html=1;exitX=0.5;exitY=1;exitDx=0;exitDy=0;entryX=0.5;entryY=0;entryDx=0;entryDy=0;strokeColor=#00CC00;fontStyle=1;strokeWidth=2;" parent="1" source="_-J-_Ixpa1AOM5gLo02t-16" target="_-J-_Ixpa1AOM5gLo02t-18" edge="1">
          <mxGeometry relative="1" as="geometry" />
        </mxCell>
        <mxCell id="_-J-_Ixpa1AOM5gLo02t-16" value="CAPTURE FACIAL &lt;br&gt;IMAGE OF APPLICANT&lt;br&gt;-------------&lt;br style=&quot;border-color: var(--border-color);&quot;&gt;WITH P/G/I &lt;br&gt;ASSISTANCE" style="rounded=0;whiteSpace=wrap;html=1;fontStyle=1;strokeWidth=2;shape=label;fixedSize=1;" parent="1" vertex="1">
          <mxGeometry x="770" y="703.5" width="160" height="80" as="geometry" />
        </mxCell>
        <mxCell id="sNpTPO4_H6hmEde9CRE1-270" style="edgeStyle=orthogonalEdgeStyle;rounded=0;orthogonalLoop=1;jettySize=auto;html=1;exitX=0.5;exitY=1;exitDx=0;exitDy=0;strokeColor=#FF0000;fontStyle=1;strokeWidth=2;entryX=0.5;entryY=0;entryDx=0;entryDy=0;" parent="1" source="_-J-_Ixpa1AOM5gLo02t-18" target="sNpTPO4_H6hmEde9CRE1-268" edge="1">
          <mxGeometry relative="1" as="geometry">
            <Array as="points">
              <mxPoint x="850" y="1320" />
              <mxPoint x="730" y="1320" />
            </Array>
          </mxGeometry>
        </mxCell>
        <mxCell id="sNpTPO4_H6hmEde9CRE1-277" style="edgeStyle=orthogonalEdgeStyle;rounded=0;orthogonalLoop=1;jettySize=auto;html=1;exitX=0;exitY=0.5;exitDx=0;exitDy=0;strokeColor=#00CC00;fontStyle=1;strokeWidth=2;" parent="1" source="_-J-_Ixpa1AOM5gLo02t-18" target="sNpTPO4_H6hmEde9CRE1-272" edge="1">
          <mxGeometry relative="1" as="geometry" />
        </mxCell>
        <mxCell id="_-J-_Ixpa1AOM5gLo02t-18" value="IF&amp;nbsp;&lt;br style=&quot;border-color: var(--border-color);&quot;&gt;FACIAL SCAN SUCCESS" style="rounded=0;whiteSpace=wrap;html=1;fontStyle=1;strokeWidth=2;shape=rhombus;perimeter=rhombusPerimeter;" parent="1" vertex="1">
          <mxGeometry x="803.75" y="967.4999999999999" width="92.5" height="80" as="geometry" />
        </mxCell>
        <mxCell id="_-J-_Ixpa1AOM5gLo02t-34" style="edgeStyle=orthogonalEdgeStyle;rounded=0;orthogonalLoop=1;jettySize=auto;html=1;exitX=0.5;exitY=1;exitDx=0;exitDy=0;entryX=0;entryY=0.5;entryDx=0;entryDy=0;entryPerimeter=0;strokeColor=#FF0000;fontStyle=1;strokeWidth=2;" parent="1" source="_-J-_Ixpa1AOM5gLo02t-20" target="_-J-_Ixpa1AOM5gLo02t-32" edge="1">
          <mxGeometry relative="1" as="geometry">
            <Array as="points">
              <mxPoint x="890" y="1595" />
            </Array>
          </mxGeometry>
        </mxCell>
        <mxCell id="sNpTPO4_H6hmEde9CRE1-296" style="edgeStyle=orthogonalEdgeStyle;rounded=0;orthogonalLoop=1;jettySize=auto;html=1;exitX=1;exitY=0.5;exitDx=0;exitDy=0;entryX=0.5;entryY=1;entryDx=0;entryDy=0;strokeColor=#00CC00;fontStyle=1;strokeWidth=2;" parent="1" source="_-J-_Ixpa1AOM5gLo02t-20" target="sNpTPO4_H6hmEde9CRE1-259" edge="1">
          <mxGeometry relative="1" as="geometry" />
        </mxCell>
        <mxCell id="_-J-_Ixpa1AOM5gLo02t-20" value="IF&lt;br&gt;FACIAL &lt;br&gt;BIOMETRIC&lt;br&gt;DATA IS &lt;br&gt;UNIQUE" style="rounded=0;whiteSpace=wrap;html=1;fontStyle=1;strokeWidth=2;shape=rhombus;perimeter=rhombusPerimeter;fillColor=#fff2cc;strokeColor=#d6b656;" parent="1" vertex="1">
          <mxGeometry x="830" y="1477" width="120" height="100" as="geometry" />
        </mxCell>
        <mxCell id="sNpTPO4_H6hmEde9CRE1-287" style="edgeStyle=orthogonalEdgeStyle;rounded=0;orthogonalLoop=1;jettySize=auto;html=1;exitX=0.5;exitY=0;exitDx=0;exitDy=0;exitPerimeter=0;strokeColor=#00CC00;fontStyle=1;strokeWidth=2;" parent="1" source="_-J-_Ixpa1AOM5gLo02t-32" target="sNpTPO4_H6hmEde9CRE1-286" edge="1">
          <mxGeometry relative="1" as="geometry" />
        </mxCell>
        <mxCell id="_-J-_Ixpa1AOM5gLo02t-32" value="&lt;span style=&quot;border-color: var(--border-color);&quot;&gt;&lt;b&gt;TERMINATE PROCESS:&lt;/b&gt;&lt;br&gt;REJECT APPLICATION&lt;br&gt;&lt;/span&gt;" style="strokeWidth=2;html=1;shape=mxgraph.flowchart.terminator;whiteSpace=wrap;fillColor=#f8cecc;strokeColor=#b85450;" parent="1" vertex="1">
          <mxGeometry x="1295" y="1570" width="160" height="50" as="geometry" />
        </mxCell>
        <mxCell id="_-J-_Ixpa1AOM5gLo02t-43" style="edgeStyle=orthogonalEdgeStyle;rounded=0;orthogonalLoop=1;jettySize=auto;html=1;exitX=1;exitY=0.5;exitDx=0;exitDy=0;entryX=0;entryY=0.5;entryDx=0;entryDy=0;strokeColor=#00CC00;fontStyle=1;strokeWidth=2;" parent="1" source="_-J-_Ixpa1AOM5gLo02t-37" target="_-J-_Ixpa1AOM5gLo02t-38" edge="1">
          <mxGeometry relative="1" as="geometry" />
        </mxCell>
        <mxCell id="_-J-_Ixpa1AOM5gLo02t-37" value="RECEIVES CONFIRMATION OF FACIAL BIOMETRIC CAPTURE COMPLETED" style="rounded=0;whiteSpace=wrap;html=1;fontStyle=1;strokeWidth=2;" parent="1" vertex="1">
          <mxGeometry x="970" y="703.5" width="140" height="80" as="geometry" />
        </mxCell>
        <mxCell id="_-J-_Ixpa1AOM5gLo02t-44" style="edgeStyle=orthogonalEdgeStyle;rounded=0;orthogonalLoop=1;jettySize=auto;html=1;exitX=0.5;exitY=0;exitDx=0;exitDy=0;entryX=0.5;entryY=1;entryDx=0;entryDy=0;strokeColor=#00CC00;fontStyle=1;strokeWidth=2;" parent="1" source="_-J-_Ixpa1AOM5gLo02t-38" target="_-J-_Ixpa1AOM5gLo02t-39" edge="1">
          <mxGeometry relative="1" as="geometry" />
        </mxCell>
        <mxCell id="_-J-_Ixpa1AOM5gLo02t-38" value="NOTIFY THE PARTICIPANTS" style="rounded=0;whiteSpace=wrap;html=1;fontStyle=1;strokeWidth=2;" parent="1" vertex="1">
          <mxGeometry x="1150" y="1410" width="140" height="80" as="geometry" />
        </mxCell>
        <mxCell id="sNpTPO4_H6hmEde9CRE1-284" style="edgeStyle=orthogonalEdgeStyle;rounded=0;orthogonalLoop=1;jettySize=auto;html=1;exitX=0.5;exitY=0;exitDx=0;exitDy=0;entryX=0.5;entryY=1;entryDx=0;entryDy=0;strokeColor=#00CC00;fontStyle=1;strokeWidth=2;" parent="1" source="_-J-_Ixpa1AOM5gLo02t-39" target="sNpTPO4_H6hmEde9CRE1-283" edge="1">
          <mxGeometry relative="1" as="geometry" />
        </mxCell>
        <mxCell id="_-J-_Ixpa1AOM5gLo02t-39" value="RECEIVES NOTIFICATION OF SUCCESSFUL FACIAL BIOMETRIC CAPTURING SUCCESSFUL" style="rounded=0;whiteSpace=wrap;html=1;fontStyle=1;strokeWidth=2;" parent="1" vertex="1">
          <mxGeometry x="1150" y="427.5" width="140" height="95" as="geometry" />
        </mxCell>
        <mxCell id="_-J-_Ixpa1AOM5gLo02t-49" value="OB.1.4" style="text;html=1;align=center;verticalAlign=middle;resizable=0;points=[];autosize=1;strokeColor=none;fillColor=none;fontStyle=1;fontSize=30;strokeWidth=2;" parent="1" vertex="1">
          <mxGeometry x="670" y="90" width="120" height="50" as="geometry" />
        </mxCell>
        <mxCell id="_-J-_Ixpa1AOM5gLo02t-50" value="OFFLINE BIOMETRIC COLLECTION: FACIAL DATA" style="text;html=1;align=center;verticalAlign=middle;resizable=0;points=[];autosize=1;strokeColor=none;fillColor=none;fontStyle=1;fontSize=30;strokeWidth=2;" parent="1" vertex="1">
          <mxGeometry x="840" y="90" width="750" height="50" as="geometry" />
        </mxCell>
        <mxCell id="sNpTPO4_H6hmEde9CRE1-27" value="PRIVATE NETWORK&lt;br style=&quot;border-color: var(--border-color);&quot;&gt;SYSTEMS (SERVER)" style="text;html=1;align=center;verticalAlign=middle;resizable=0;points=[];autosize=1;strokeColor=none;fillColor=none;fontStyle=1;fontSize=23;strokeWidth=2;horizontal=0;" parent="1" vertex="1">
          <mxGeometry x="-100" y="1340" width="80" height="240" as="geometry" />
        </mxCell>
        <mxCell id="sNpTPO4_H6hmEde9CRE1-28" value="PUBLIC NETWORK&lt;br style=&quot;border-color: var(--border-color);&quot;&gt;SYSTEMS (CLIENT)" style="text;html=1;align=center;verticalAlign=middle;resizable=0;points=[];autosize=1;strokeColor=none;fillColor=none;fontStyle=1;fontSize=23;strokeWidth=2;horizontal=0;" parent="1" vertex="1">
          <mxGeometry x="-100" y="950" width="80" height="230" as="geometry" />
        </mxCell>
        <mxCell id="sNpTPO4_H6hmEde9CRE1-221" value="&lt;font style=&quot;font-size: 14px;&quot;&gt;LEGEND&lt;/font&gt;" style="swimlane;whiteSpace=wrap;html=1;" parent="1" vertex="1">
          <mxGeometry x="1610" y="140" width="200" height="260" as="geometry" />
        </mxCell>
        <mxCell id="sNpTPO4_H6hmEde9CRE1-222" value="KM" style="ellipse;whiteSpace=wrap;html=1;fillColor=#dae8fc;strokeColor=#6c8ebf;gradientColor=#7ea6e0;fontStyle=1" parent="sNpTPO4_H6hmEde9CRE1-221" vertex="1">
          <mxGeometry x="10" y="30" width="30" height="26" as="geometry" />
        </mxCell>
        <mxCell id="sNpTPO4_H6hmEde9CRE1-223" value="IDA" style="ellipse;whiteSpace=wrap;html=1;fillColor=#dae8fc;strokeColor=#6c8ebf;gradientColor=#7ea6e0;fontStyle=1" parent="sNpTPO4_H6hmEde9CRE1-221" vertex="1">
          <mxGeometry x="10" y="131" width="30" height="26" as="geometry" />
        </mxCell>
        <mxCell id="sNpTPO4_H6hmEde9CRE1-224" value="HSM" style="ellipse;whiteSpace=wrap;html=1;fillColor=#dae8fc;strokeColor=#6c8ebf;gradientColor=#7ea6e0;fontStyle=1" parent="sNpTPO4_H6hmEde9CRE1-221" vertex="1">
          <mxGeometry x="10" y="91" width="30" height="26" as="geometry" />
        </mxCell>
        <mxCell id="sNpTPO4_H6hmEde9CRE1-225" value="KR" style="ellipse;whiteSpace=wrap;html=1;fillColor=#dae8fc;strokeColor=#6c8ebf;gradientColor=#7ea6e0;fontStyle=1" parent="sNpTPO4_H6hmEde9CRE1-221" vertex="1">
          <mxGeometry x="10" y="59" width="30" height="26" as="geometry" />
        </mxCell>
        <mxCell id="sNpTPO4_H6hmEde9CRE1-226" value="Key Manager" style="text;html=1;strokeColor=none;fillColor=none;align=center;verticalAlign=middle;whiteSpace=wrap;rounded=0;fontSize=14;" parent="sNpTPO4_H6hmEde9CRE1-221" vertex="1">
          <mxGeometry x="40" y="30" width="160" height="28" as="geometry" />
        </mxCell>
        <mxCell id="sNpTPO4_H6hmEde9CRE1-227" value="Key Revocation" style="text;html=1;strokeColor=none;fillColor=none;align=center;verticalAlign=middle;whiteSpace=wrap;rounded=0;fontSize=14;" parent="sNpTPO4_H6hmEde9CRE1-221" vertex="1">
          <mxGeometry x="40" y="58" width="160" height="28" as="geometry" />
        </mxCell>
        <mxCell id="sNpTPO4_H6hmEde9CRE1-228" value="Hardware Security Module" style="text;html=1;strokeColor=none;fillColor=none;align=center;verticalAlign=middle;whiteSpace=wrap;rounded=0;fontSize=14;" parent="sNpTPO4_H6hmEde9CRE1-221" vertex="1">
          <mxGeometry x="40" y="90" width="160" height="28" as="geometry" />
        </mxCell>
        <mxCell id="sNpTPO4_H6hmEde9CRE1-229" value="ID Authentication (DB)" style="text;html=1;strokeColor=none;fillColor=none;align=center;verticalAlign=middle;whiteSpace=wrap;rounded=0;fontSize=14;" parent="sNpTPO4_H6hmEde9CRE1-221" vertex="1">
          <mxGeometry x="40" y="130" width="160" height="28" as="geometry" />
        </mxCell>
        <mxCell id="sNpTPO4_H6hmEde9CRE1-230" value="AC" style="ellipse;whiteSpace=wrap;html=1;fillColor=#dae8fc;strokeColor=#6c8ebf;gradientColor=#7ea6e0;fontStyle=1" parent="sNpTPO4_H6hmEde9CRE1-221" vertex="1">
          <mxGeometry x="10" y="161" width="30" height="26" as="geometry" />
        </mxCell>
        <mxCell id="sNpTPO4_H6hmEde9CRE1-231" value="Access Control" style="text;html=1;strokeColor=none;fillColor=none;align=center;verticalAlign=middle;whiteSpace=wrap;rounded=0;fontSize=14;" parent="sNpTPO4_H6hmEde9CRE1-221" vertex="1">
          <mxGeometry x="40" y="160" width="160" height="28" as="geometry" />
        </mxCell>
        <mxCell id="sNpTPO4_H6hmEde9CRE1-232" value="Certificate Authority" style="text;html=1;strokeColor=none;fillColor=none;align=center;verticalAlign=middle;whiteSpace=wrap;rounded=0;fontSize=14;" parent="sNpTPO4_H6hmEde9CRE1-221" vertex="1">
          <mxGeometry x="40" y="190" width="160" height="28" as="geometry" />
        </mxCell>
        <mxCell id="sNpTPO4_H6hmEde9CRE1-233" value="CA" style="ellipse;whiteSpace=wrap;html=1;fillColor=#dae8fc;strokeColor=#6c8ebf;gradientColor=#7ea6e0;fontStyle=1" parent="sNpTPO4_H6hmEde9CRE1-221" vertex="1">
          <mxGeometry x="10" y="191" width="30" height="26" as="geometry" />
        </mxCell>
        <mxCell id="sNpTPO4_H6hmEde9CRE1-297" value="" style="rhombus;whiteSpace=wrap;html=1;fillColor=#fff2cc;strokeColor=#d6b656;rounded=0;fontStyle=1;strokeWidth=2;" parent="sNpTPO4_H6hmEde9CRE1-221" vertex="1">
          <mxGeometry x="10" y="224" width="30" height="30" as="geometry" />
        </mxCell>
        <mxCell id="sNpTPO4_H6hmEde9CRE1-298" value="Deduplication Process" style="text;html=1;strokeColor=none;fillColor=none;align=center;verticalAlign=middle;whiteSpace=wrap;rounded=0;fontSize=14;" parent="sNpTPO4_H6hmEde9CRE1-221" vertex="1">
          <mxGeometry x="40" y="224" width="160" height="28" as="geometry" />
        </mxCell>
        <mxCell id="sNpTPO4_H6hmEde9CRE1-234" value="&lt;font style=&quot;font-size: 14px;&quot;&gt;PUBLIC NETWORK&lt;/font&gt;" style="swimlane;whiteSpace=wrap;html=1;" parent="1" vertex="1">
          <mxGeometry x="1610" y="924" width="200" height="167" as="geometry" />
        </mxCell>
        <mxCell id="sNpTPO4_H6hmEde9CRE1-235" value="DNS SERVERS" style="text;html=1;strokeColor=none;fillColor=none;align=center;verticalAlign=middle;whiteSpace=wrap;rounded=0;fontSize=14;" parent="sNpTPO4_H6hmEde9CRE1-234" vertex="1">
          <mxGeometry y="27" width="200" height="28" as="geometry" />
        </mxCell>
        <mxCell id="sNpTPO4_H6hmEde9CRE1-236" value="FTP SERVERS" style="text;html=1;strokeColor=none;fillColor=none;align=center;verticalAlign=middle;whiteSpace=wrap;rounded=0;fontSize=14;" parent="sNpTPO4_H6hmEde9CRE1-234" vertex="1">
          <mxGeometry y="55" width="200" height="28" as="geometry" />
        </mxCell>
        <mxCell id="sNpTPO4_H6hmEde9CRE1-237" value="MAIL SERVERS" style="text;html=1;strokeColor=none;fillColor=none;align=center;verticalAlign=middle;whiteSpace=wrap;rounded=0;fontSize=14;" parent="sNpTPO4_H6hmEde9CRE1-234" vertex="1">
          <mxGeometry y="83" width="200" height="28" as="geometry" />
        </mxCell>
        <mxCell id="sNpTPO4_H6hmEde9CRE1-238" value="PROXY SERVERS" style="text;html=1;strokeColor=none;fillColor=none;align=center;verticalAlign=middle;whiteSpace=wrap;rounded=0;fontSize=14;" parent="sNpTPO4_H6hmEde9CRE1-234" vertex="1">
          <mxGeometry y="111" width="200" height="28" as="geometry" />
        </mxCell>
        <mxCell id="sNpTPO4_H6hmEde9CRE1-239" value="WEB SERVERS" style="text;html=1;strokeColor=none;fillColor=none;align=center;verticalAlign=middle;whiteSpace=wrap;rounded=0;fontSize=14;" parent="sNpTPO4_H6hmEde9CRE1-234" vertex="1">
          <mxGeometry y="139" width="200" height="28" as="geometry" />
        </mxCell>
        <mxCell id="sNpTPO4_H6hmEde9CRE1-242" value="" style="edgeStyle=orthogonalEdgeStyle;rounded=0;orthogonalLoop=1;jettySize=auto;html=1;exitX=0.5;exitY=1;exitDx=0;exitDy=0;fontStyle=1;strokeWidth=2;strokeColor=#00CC00;" parent="1" source="KI7Xn0BbtmQMHCuYdvjg-1" target="sNpTPO4_H6hmEde9CRE1-241" edge="1">
          <mxGeometry relative="1" as="geometry">
            <mxPoint x="100" y="370" as="sourcePoint" />
            <mxPoint x="100" y="710" as="targetPoint" />
          </mxGeometry>
        </mxCell>
        <mxCell id="sNpTPO4_H6hmEde9CRE1-241" value="PROVIDE CONSENT &lt;br&gt;&lt;u&gt;OB.1.4.A&lt;/u&gt;" style="rounded=0;whiteSpace=wrap;html=1;fontStyle=1;strokeWidth=2;" parent="1" vertex="1">
          <mxGeometry x="40" y="440" width="120" height="60" as="geometry" />
        </mxCell>
        <mxCell id="sNpTPO4_H6hmEde9CRE1-243" value="USER" style="shape=umlActor;verticalLabelPosition=bottom;verticalAlign=top;html=1;outlineConnect=0;fontStyle=1" parent="1" vertex="1">
          <mxGeometry x="-40" y="235" width="30" height="60" as="geometry" />
        </mxCell>
        <mxCell id="sNpTPO4_H6hmEde9CRE1-246" value="P/G/I" style="shape=umlActor;verticalLabelPosition=bottom;verticalAlign=top;html=1;outlineConnect=0;fontStyle=1" parent="1" vertex="1">
          <mxGeometry x="-40" y="455" width="30" height="60" as="geometry" />
        </mxCell>
        <mxCell id="sNpTPO4_H6hmEde9CRE1-247" value="ADMIN" style="shape=umlActor;verticalLabelPosition=bottom;verticalAlign=top;html=1;outlineConnect=0;fontStyle=1" parent="1" vertex="1">
          <mxGeometry x="-50" y="703.5" width="30" height="60" as="geometry" />
        </mxCell>
        <mxCell id="sNpTPO4_H6hmEde9CRE1-250" style="edgeStyle=orthogonalEdgeStyle;rounded=0;orthogonalLoop=1;jettySize=auto;html=1;exitX=1;exitY=0.5;exitDx=0;exitDy=0;strokeColor=#00CC00;fontStyle=1;strokeWidth=2;" parent="1" source="sNpTPO4_H6hmEde9CRE1-248" target="_-J-_Ixpa1AOM5gLo02t-1" edge="1">
          <mxGeometry relative="1" as="geometry" />
        </mxCell>
        <mxCell id="sNpTPO4_H6hmEde9CRE1-248" value="IF &lt;br&gt;CONSENT GIVEN" style="rounded=0;whiteSpace=wrap;html=1;fontStyle=1;strokeWidth=2;shape=rhombus;perimeter=rhombusPerimeter;" parent="1" vertex="1">
          <mxGeometry x="55" y="1340" width="90" height="80" as="geometry" />
        </mxCell>
        <mxCell id="sNpTPO4_H6hmEde9CRE1-258" value="" style="group" parent="1" vertex="1" connectable="0">
          <mxGeometry x="10" y="1006.5" width="150" height="78" as="geometry" />
        </mxCell>
        <mxCell id="sNpTPO4_H6hmEde9CRE1-254" value="MASK &amp;amp; ENCRYPT RID AND APPLICANT DETAILS&amp;nbsp;" style="rounded=0;whiteSpace=wrap;html=1;fontStyle=1;strokeWidth=2;fontSize=11;" parent="sNpTPO4_H6hmEde9CRE1-258" vertex="1">
          <mxGeometry x="30" y="9" width="120" height="60" as="geometry" />
        </mxCell>
        <mxCell id="sNpTPO4_H6hmEde9CRE1-255" value="CA" style="ellipse;whiteSpace=wrap;html=1;fillColor=#dae8fc;strokeColor=#6c8ebf;gradientColor=#7ea6e0;fontStyle=1" parent="sNpTPO4_H6hmEde9CRE1-258" vertex="1">
          <mxGeometry y="52" width="30" height="26" as="geometry" />
        </mxCell>
        <mxCell id="sNpTPO4_H6hmEde9CRE1-256" value="HSM" style="ellipse;whiteSpace=wrap;html=1;fillColor=#dae8fc;strokeColor=#6c8ebf;gradientColor=#7ea6e0;fontStyle=1" parent="sNpTPO4_H6hmEde9CRE1-258" vertex="1">
          <mxGeometry y="26" width="30" height="26" as="geometry" />
        </mxCell>
        <mxCell id="sNpTPO4_H6hmEde9CRE1-257" value="KM" style="ellipse;whiteSpace=wrap;html=1;fillColor=#dae8fc;strokeColor=#6c8ebf;gradientColor=#7ea6e0;fontStyle=1" parent="sNpTPO4_H6hmEde9CRE1-258" vertex="1">
          <mxGeometry width="30" height="26" as="geometry" />
        </mxCell>
        <mxCell id="sNpTPO4_H6hmEde9CRE1-265" style="edgeStyle=orthogonalEdgeStyle;rounded=0;orthogonalLoop=1;jettySize=auto;html=1;exitX=0.5;exitY=1;exitDx=0;exitDy=0;entryX=0;entryY=0.5;entryDx=0;entryDy=0;entryPerimeter=0;strokeColor=#FF0000;fontStyle=1;strokeWidth=2;" parent="1" source="sNpTPO4_H6hmEde9CRE1-248" target="_-J-_Ixpa1AOM5gLo02t-32" edge="1">
          <mxGeometry relative="1" as="geometry">
            <Array as="points">
              <mxPoint x="100" y="1595" />
            </Array>
          </mxGeometry>
        </mxCell>
        <mxCell id="sNpTPO4_H6hmEde9CRE1-278" style="edgeStyle=orthogonalEdgeStyle;rounded=0;orthogonalLoop=1;jettySize=auto;html=1;exitX=0;exitY=0.5;exitDx=0;exitDy=0;entryX=0.5;entryY=1;entryDx=0;entryDy=0;strokeColor=#00CC00;fontStyle=1;strokeWidth=2;jumpStyle=arc;jumpSize=11;" parent="1" source="sNpTPO4_H6hmEde9CRE1-267" target="8eKBUWW6FmaFlCSRCfbh-6" edge="1">
          <mxGeometry relative="1" as="geometry">
            <Array as="points">
              <mxPoint x="380" y="1453" />
            </Array>
          </mxGeometry>
        </mxCell>
        <mxCell id="sNpTPO4_H6hmEde9CRE1-267" value="IF &lt;br&gt;RETRY &lt;br&gt;COUNT &lt;br&gt;&amp;lt; = 3" style="rounded=0;whiteSpace=wrap;html=1;fontStyle=1;strokeWidth=2;shape=rhombus;perimeter=rhombusPerimeter;" parent="1" vertex="1">
          <mxGeometry x="686.25" y="1415.5" width="87.5" height="74.5" as="geometry" />
        </mxCell>
        <mxCell id="gdyjUKlY1L6w3VG7I9a2-3" style="edgeStyle=orthogonalEdgeStyle;rounded=0;orthogonalLoop=1;jettySize=auto;html=1;exitX=0.5;exitY=1;exitDx=0;exitDy=0;strokeColor=#FF0000;fontStyle=1;strokeWidth=2;" parent="1" source="sNpTPO4_H6hmEde9CRE1-268" target="sNpTPO4_H6hmEde9CRE1-267" edge="1">
          <mxGeometry relative="1" as="geometry" />
        </mxCell>
        <mxCell id="sNpTPO4_H6hmEde9CRE1-268" value="EXCEPTION AND ERROR HANDLING (COUNTER)" style="rounded=0;whiteSpace=wrap;html=1;fontStyle=1;strokeWidth=2;fontSize=11;shape=label;boundedLbl=1;backgroundOutline=1;size=9.769240159254764;" parent="1" vertex="1">
          <mxGeometry x="655" y="1350" width="150" height="40" as="geometry" />
        </mxCell>
        <mxCell id="sNpTPO4_H6hmEde9CRE1-271" value="" style="group" parent="1" vertex="1" connectable="0">
          <mxGeometry x="580" y="1077" width="150" height="78" as="geometry" />
        </mxCell>
        <mxCell id="sNpTPO4_H6hmEde9CRE1-272" value="MASK &amp;amp; ENCRYPT FACIAL SCAN" style="rounded=0;whiteSpace=wrap;html=1;fontStyle=1;strokeWidth=2;fontSize=11;" parent="sNpTPO4_H6hmEde9CRE1-271" vertex="1">
          <mxGeometry x="30" y="9" width="120" height="60" as="geometry" />
        </mxCell>
        <mxCell id="sNpTPO4_H6hmEde9CRE1-273" value="CA" style="ellipse;whiteSpace=wrap;html=1;fillColor=#dae8fc;strokeColor=#6c8ebf;gradientColor=#7ea6e0;fontStyle=1" parent="sNpTPO4_H6hmEde9CRE1-271" vertex="1">
          <mxGeometry y="52" width="30" height="26" as="geometry" />
        </mxCell>
        <mxCell id="sNpTPO4_H6hmEde9CRE1-274" value="HSM" style="ellipse;whiteSpace=wrap;html=1;fillColor=#dae8fc;strokeColor=#6c8ebf;gradientColor=#7ea6e0;fontStyle=1" parent="sNpTPO4_H6hmEde9CRE1-271" vertex="1">
          <mxGeometry y="26" width="30" height="26" as="geometry" />
        </mxCell>
        <mxCell id="sNpTPO4_H6hmEde9CRE1-275" value="KM" style="ellipse;whiteSpace=wrap;html=1;fillColor=#dae8fc;strokeColor=#6c8ebf;gradientColor=#7ea6e0;fontStyle=1" parent="sNpTPO4_H6hmEde9CRE1-271" vertex="1">
          <mxGeometry width="30" height="26" as="geometry" />
        </mxCell>
        <mxCell id="sNpTPO4_H6hmEde9CRE1-279" style="edgeStyle=orthogonalEdgeStyle;rounded=0;orthogonalLoop=1;jettySize=auto;html=1;exitX=1;exitY=0.5;exitDx=0;exitDy=0;entryX=0.845;entryY=1.006;entryDx=0;entryDy=0;entryPerimeter=0;strokeColor=#00CC00;fontStyle=1;strokeWidth=2;jumpStyle=arc;jumpSize=11;" parent="1" source="sNpTPO4_H6hmEde9CRE1-267" target="_-J-_Ixpa1AOM5gLo02t-13" edge="1">
          <mxGeometry relative="1" as="geometry">
            <Array as="points">
              <mxPoint x="830" y="1453" />
              <mxPoint x="830" y="1060" />
              <mxPoint x="715" y="1060" />
            </Array>
          </mxGeometry>
        </mxCell>
        <mxCell id="sNpTPO4_H6hmEde9CRE1-280" value="RESET COUNTER" style="edgeStyle=orthogonalEdgeStyle;rounded=0;orthogonalLoop=1;jettySize=auto;html=1;exitX=1;exitY=0.5;exitDx=0;exitDy=0;entryX=0.5;entryY=0;entryDx=0;entryDy=0;strokeColor=#00CC00;fontStyle=1;strokeWidth=2;jumpStyle=arc;jumpSize=11;" parent="1" source="sNpTPO4_H6hmEde9CRE1-272" target="_-J-_Ixpa1AOM5gLo02t-20" edge="1">
          <mxGeometry x="0.7044" relative="1" as="geometry">
            <Array as="points">
              <mxPoint x="890" y="1116" />
              <mxPoint x="890" y="1380" />
            </Array>
            <mxPoint y="-1" as="offset" />
          </mxGeometry>
        </mxCell>
        <mxCell id="sNpTPO4_H6hmEde9CRE1-282" style="edgeStyle=orthogonalEdgeStyle;rounded=0;orthogonalLoop=1;jettySize=auto;html=1;exitX=0.5;exitY=1;exitDx=0;exitDy=0;entryX=0;entryY=0.5;entryDx=0;entryDy=0;entryPerimeter=0;strokeColor=#FF0000;fontStyle=1;strokeWidth=2;" parent="1" source="sNpTPO4_H6hmEde9CRE1-267" target="_-J-_Ixpa1AOM5gLo02t-32" edge="1">
          <mxGeometry relative="1" as="geometry" />
        </mxCell>
        <mxCell id="sNpTPO4_H6hmEde9CRE1-295" style="edgeStyle=orthogonalEdgeStyle;rounded=0;orthogonalLoop=1;jettySize=auto;html=1;exitX=0.5;exitY=0;exitDx=0;exitDy=0;strokeColor=#00CC00;fontStyle=1;strokeWidth=2;" parent="1" source="sNpTPO4_H6hmEde9CRE1-283" target="sNpTPO4_H6hmEde9CRE1-291" edge="1">
          <mxGeometry relative="1" as="geometry" />
        </mxCell>
        <mxCell id="sNpTPO4_H6hmEde9CRE1-283" value="RECEIVES NOTIFICATION OF SUCCESSFUL FACIAL BIOMETRIC CAPTURING SUCCESSFUL" style="rounded=0;whiteSpace=wrap;html=1;fontStyle=1;strokeWidth=2;" parent="1" vertex="1">
          <mxGeometry x="1150" y="240" width="140" height="95" as="geometry" />
        </mxCell>
        <mxCell id="sNpTPO4_H6hmEde9CRE1-285" value="NOTIFICATION GENERATOR" style="rounded=0;whiteSpace=wrap;html=1;fontStyle=1;strokeWidth=2;fontSize=11;fillColor=default;strokeColor=default;" parent="1" vertex="1">
          <mxGeometry x="1180" y="1294" width="240" height="37" as="geometry" />
        </mxCell>
        <mxCell id="sNpTPO4_H6hmEde9CRE1-289" style="edgeStyle=orthogonalEdgeStyle;rounded=0;orthogonalLoop=1;jettySize=auto;html=1;exitX=0.5;exitY=0;exitDx=0;exitDy=0;entryX=0.5;entryY=1;entryDx=0;entryDy=0;strokeColor=#00CC00;fontStyle=1;strokeWidth=2;" parent="1" source="sNpTPO4_H6hmEde9CRE1-286" target="sNpTPO4_H6hmEde9CRE1-288" edge="1">
          <mxGeometry relative="1" as="geometry" />
        </mxCell>
        <mxCell id="sNpTPO4_H6hmEde9CRE1-286" value="RECEIVES NOTIFICATION OF UNSUCCESSFUL FACIAL BIOMETRIC CAPTURING" style="rounded=0;whiteSpace=wrap;html=1;fontStyle=1;strokeWidth=2;" parent="1" vertex="1">
          <mxGeometry x="1305" y="427.5" width="140" height="95" as="geometry" />
        </mxCell>
        <mxCell id="sNpTPO4_H6hmEde9CRE1-294" style="edgeStyle=orthogonalEdgeStyle;rounded=0;orthogonalLoop=1;jettySize=auto;html=1;exitX=1;exitY=0.5;exitDx=0;exitDy=0;strokeColor=#00CC00;fontStyle=1;strokeWidth=2;" parent="1" source="sNpTPO4_H6hmEde9CRE1-288" target="sNpTPO4_H6hmEde9CRE1-291" edge="1">
          <mxGeometry relative="1" as="geometry" />
        </mxCell>
        <mxCell id="sNpTPO4_H6hmEde9CRE1-288" value="RECEIVES NOTIFICATION OF UNSUCCESSFUL FACIAL BIOMETRIC CAPTURING" style="rounded=0;whiteSpace=wrap;html=1;fontStyle=1;strokeWidth=2;" parent="1" vertex="1">
          <mxGeometry x="1305" y="237.5" width="140" height="95" as="geometry" />
        </mxCell>
        <mxCell id="sNpTPO4_H6hmEde9CRE1-290" value="" style="edgeStyle=orthogonalEdgeStyle;rounded=0;orthogonalLoop=1;jettySize=auto;html=1;strokeColor=#00CC00;fontStyle=1;strokeWidth=2;" parent="1" source="sNpTPO4_H6hmEde9CRE1-291" target="sNpTPO4_H6hmEde9CRE1-292" edge="1">
          <mxGeometry relative="1" as="geometry" />
        </mxCell>
        <mxCell id="sNpTPO4_H6hmEde9CRE1-291" value="LOGS THE PROCESS AND STATUS" style="rounded=0;whiteSpace=wrap;html=1;fontStyle=1;strokeWidth=2;shape=label;boundedLbl=1;backgroundOutline=1;size=15;" parent="1" vertex="1">
          <mxGeometry x="1430" y="1360.5" width="120" height="59.5" as="geometry" />
        </mxCell>
        <mxCell id="sNpTPO4_H6hmEde9CRE1-292" value="&lt;b&gt;END&lt;/b&gt;" style="strokeWidth=2;html=1;shape=mxgraph.flowchart.terminator;whiteSpace=wrap;fillColor=#f8cecc;strokeColor=#b85450;" parent="1" vertex="1">
          <mxGeometry x="1440" y="1499.5" width="100" height="40" as="geometry" />
        </mxCell>
        <mxCell id="sNpTPO4_H6hmEde9CRE1-293" value="IDA" style="ellipse;whiteSpace=wrap;html=1;fillColor=#dae8fc;strokeColor=#6c8ebf;gradientColor=#7ea6e0;fontStyle=1" parent="1" vertex="1">
          <mxGeometry x="1430" y="1334.5" width="30" height="26" as="geometry" />
        </mxCell>
        <mxCell id="sNpTPO4_H6hmEde9CRE1-299" value="KR" style="ellipse;whiteSpace=wrap;html=1;fillColor=#dae8fc;strokeColor=#6c8ebf;gradientColor=#7ea6e0;fontStyle=1" parent="1" vertex="1">
          <mxGeometry x="1290" y="1551" width="30" height="26" as="geometry" />
        </mxCell>
        <mxCell id="gdyjUKlY1L6w3VG7I9a2-2" style="edgeStyle=orthogonalEdgeStyle;rounded=0;orthogonalLoop=1;jettySize=auto;html=1;exitX=0.5;exitY=0;exitDx=0;exitDy=0;entryX=0.5;entryY=1;entryDx=0;entryDy=0;strokeColor=#00CC00;fontStyle=1;strokeWidth=2;" parent="1" source="sNpTPO4_H6hmEde9CRE1-259" target="_-J-_Ixpa1AOM5gLo02t-37" edge="1">
          <mxGeometry relative="1" as="geometry" />
        </mxCell>
        <mxCell id="sNpTPO4_H6hmEde9CRE1-259" value="STORE FACIAL BIOMETRIC DATA IN RID ACCOUNT&lt;br&gt;WITH ENCRYPTION AND HASHING" style="rounded=0;whiteSpace=wrap;html=1;fontStyle=1;strokeWidth=2;fontSize=11;shape=label;boundedLbl=1;backgroundOutline=1;size=15;" parent="1" vertex="1">
          <mxGeometry x="980" y="1370" width="120" height="78" as="geometry" />
        </mxCell>
        <mxCell id="sNpTPO4_H6hmEde9CRE1-260" value="IDA" style="ellipse;whiteSpace=wrap;html=1;fillColor=#dae8fc;strokeColor=#6c8ebf;gradientColor=#7ea6e0;fontStyle=1" parent="1" vertex="1">
          <mxGeometry x="980" y="1341.92" width="30" height="28.08" as="geometry" />
        </mxCell>
        <mxCell id="sNpTPO4_H6hmEde9CRE1-261" value="HSM" style="ellipse;whiteSpace=wrap;html=1;fillColor=#dae8fc;strokeColor=#6c8ebf;gradientColor=#7ea6e0;fontStyle=1" parent="1" vertex="1">
          <mxGeometry x="950" y="1420" width="30" height="28.08" as="geometry" />
        </mxCell>
        <mxCell id="sNpTPO4_H6hmEde9CRE1-262" value="KM" style="ellipse;whiteSpace=wrap;html=1;fillColor=#dae8fc;strokeColor=#6c8ebf;gradientColor=#7ea6e0;fontStyle=1" parent="1" vertex="1">
          <mxGeometry x="950" y="1368.08" width="30" height="28.08" as="geometry" />
        </mxCell>
        <mxCell id="sNpTPO4_H6hmEde9CRE1-191" value="" style="group" parent="1" vertex="1" connectable="0">
          <mxGeometry x="-110" y="864" width="1690" height="60" as="geometry" />
        </mxCell>
        <mxCell id="sNpTPO4_H6hmEde9CRE1-192" value="API/ HTTPS (SSL/TLS)" style="shape=label;whiteSpace=wrap;html=1;boundedLbl=1;backgroundOutline=1;darkOpacity=0.05;darkOpacity2=0.1;fillColor=#f8cecc;strokeColor=#b85450;rounded=0;fontStyle=1" parent="sNpTPO4_H6hmEde9CRE1-191" vertex="1">
          <mxGeometry width="1689.9999999999998" height="20" as="geometry" />
        </mxCell>
        <mxCell id="sNpTPO4_H6hmEde9CRE1-193" value="" style="group" parent="sNpTPO4_H6hmEde9CRE1-191" vertex="1" connectable="0">
          <mxGeometry y="20" width="1689.9999999999998" height="40" as="geometry" />
        </mxCell>
        <mxCell id="sNpTPO4_H6hmEde9CRE1-194" value="&lt;b&gt;SINGLE/ DUAL FIREWALL&lt;/b&gt;" style="shape=label;whiteSpace=wrap;html=1;boundedLbl=1;backgroundOutline=1;darkOpacity=0.05;darkOpacity2=0.1;fillColor=#e51400;fontColor=#ffffff;strokeColor=#B20000;rounded=0;" parent="sNpTPO4_H6hmEde9CRE1-193" vertex="1">
          <mxGeometry width="1689.9999999999998" height="20" as="geometry" />
        </mxCell>
        <mxCell id="sNpTPO4_H6hmEde9CRE1-195" value="&lt;b&gt;IDS, IPS, HONEYPOT&lt;/b&gt;" style="shape=label;whiteSpace=wrap;html=1;boundedLbl=1;backgroundOutline=1;darkOpacity=0.05;darkOpacity2=0.1;fillColor=#f0a30a;strokeColor=#BD7000;rounded=0;fontColor=#000000;" parent="sNpTPO4_H6hmEde9CRE1-193" vertex="1">
          <mxGeometry y="20" width="1689.9999999999998" height="20" as="geometry" />
        </mxCell>
        <mxCell id="n7gStsH2X63OIWsgXPNb-1" style="edgeStyle=orthogonalEdgeStyle;rounded=0;orthogonalLoop=1;jettySize=auto;html=1;exitX=0.5;exitY=1;exitDx=0;exitDy=0;strokeColor=#00CC00;fontStyle=1;strokeWidth=2;" parent="1" source="sNpTPO4_H6hmEde9CRE1-254" target="sNpTPO4_H6hmEde9CRE1-248" edge="1">
          <mxGeometry relative="1" as="geometry" />
        </mxCell>
        <mxCell id="sNpTPO4_H6hmEde9CRE1-196" value="" style="group" parent="1" vertex="1" connectable="0">
          <mxGeometry x="-110" y="1208" width="1690" height="60" as="geometry" />
        </mxCell>
        <mxCell id="sNpTPO4_H6hmEde9CRE1-197" value="API/ HTTPS (SSL/TLS)" style="shape=label;whiteSpace=wrap;html=1;boundedLbl=1;backgroundOutline=1;darkOpacity=0.05;darkOpacity2=0.1;fillColor=#f8cecc;strokeColor=#b85450;rounded=0;fontStyle=1" parent="sNpTPO4_H6hmEde9CRE1-196" vertex="1">
          <mxGeometry width="1689.9999999999998" height="20" as="geometry" />
        </mxCell>
        <mxCell id="sNpTPO4_H6hmEde9CRE1-198" value="" style="group" parent="sNpTPO4_H6hmEde9CRE1-196" vertex="1" connectable="0">
          <mxGeometry y="20" width="1689.9999999999998" height="40" as="geometry" />
        </mxCell>
        <mxCell id="sNpTPO4_H6hmEde9CRE1-199" value="&lt;b&gt;SINGLE/ DUAL FIREWALL&lt;/b&gt;" style="shape=label;whiteSpace=wrap;html=1;boundedLbl=1;backgroundOutline=1;darkOpacity=0.05;darkOpacity2=0.1;fillColor=#e51400;fontColor=#ffffff;strokeColor=#B20000;rounded=0;" parent="sNpTPO4_H6hmEde9CRE1-198" vertex="1">
          <mxGeometry width="1689.9999999999998" height="20" as="geometry" />
        </mxCell>
        <mxCell id="sNpTPO4_H6hmEde9CRE1-200" value="&lt;b&gt;IDS, IPS, HONEYPOT&lt;/b&gt;" style="shape=label;whiteSpace=wrap;html=1;boundedLbl=1;backgroundOutline=1;darkOpacity=0.05;darkOpacity2=0.1;fillColor=#f0a30a;strokeColor=#BD7000;rounded=0;fontColor=#000000;" parent="sNpTPO4_H6hmEde9CRE1-198" vertex="1">
          <mxGeometry y="20" width="1689.9999999999998" height="20" as="geometry" />
        </mxCell>
        <mxCell id="o-_y0QbimmEatJAZyab8-1" value="&lt;div style=&quot;font-size: 18px;&quot;&gt;&lt;font style=&quot;font-size: 18px;&quot;&gt;&lt;b style=&quot;font-size: 18px;&quot;&gt;Purpose:&lt;/b&gt;&lt;/font&gt;&lt;/div&gt;&lt;div style=&quot;&quot;&gt;This SOP details the steps for capturing and securely processing an applicant&#39;s facial biometric data for identity services.&lt;br&gt;&lt;/div&gt;" style="whiteSpace=wrap;html=1;align=left;rounded=0;strokeWidth=2;verticalAlign=middle;fontFamily=Helvetica;fontSize=18;fontStyle=0;" vertex="1" parent="1">
          <mxGeometry x="-150" y="20" width="1760" height="60" as="geometry" />
        </mxCell>
      </root>
    </mxGraphModel>
  </diagram>
</mxfile>
